Coordinates
version=1
nRows=6
nColumns=63
inDegrees=yes

Units are S.I. units (second, meters, Newtons, ...)
If the header above contains a line with 'inDegrees', this indicates whether rotational values are in degrees (yes) or radians (no).

endheader
time	pelvis_tilt	pelvis_list	pelvis_rotation	pelvis_tx	pelvis_ty	pelvis_tz	hip_flexion_r	hip_adduction_r	hip_rotation_r	knee_angle_r	knee_angle_r_beta	ankle_angle_r	subtalar_angle_r	mtp_angle_r	hip_flexion_l	hip_adduction_l	hip_rotation_l	knee_angle_l	knee_angle_l_beta	ankle_angle_l	subtalar_angle_l	mtp_angle_l	L5_S1_Flex_Ext	L5_S1_Lat_Bending	L5_S1_axial_rotation	L4_L5_Flex_Ext	L4_L5_Lat_Bending	L4_L5_axial_rotation	L3_L4_Flex_Ext	L3_L4_Lat_Bending	L3_L4_axial_rotation	L2_L3_Flex_Ext	L2_L3_Lat_Bending	L2_L3_axial_rotation	L1_L2_Flex_Ext	L1_L2_Lat_Bending	L1_L2_axial_rotation	L1_T12_Flex_Ext	L1_T12_Lat_Bending	L1_T12_axial_rotation	Abs_r3	Abs_r2	Abs_r1	Abs_t1	Abs_t2	neck_flexion	neck_bending	neck_rotation	arm_flex_r	arm_add_r	arm_rot_r	elbow_flex_r	pro_sup_r	wrist_flex_r	wrist_dev_r	arm_flex_l	arm_add_l	arm_rot_l	elbow_flex_l	pro_sup_l	wrist_flex_l	wrist_dev_l
1.826087	2.779362	-3.867163	93.801835	0.175656	0.872236	0.563726	-4.142189	-4.303749	2.008626	0.808991	0.014120	21.703716	2.775568	0.000000	-1.954974	-0.024605	9.835816	1.070071	0.018676	24.738031	-0.898168	0.000000	0.005977	0.000196	-1.409348	0.011099	0.000260	-1.497432	0.009819	0.000476	-1.497432	0.006831	0.000476	-1.233179	0.005550	0.000399	-1.145095	0.003415	0.000303	-1.057011	0.042690	0.002214	-7.838371	0.000000	0.000000	20.720773	4.790388	11.578424	11.317250	-13.234142	116.582346	10.239304	8.304580	11.501083	-4.987585	11.089767	-5.828245	147.364986	3.622149	4.446334	-6.995984	-11.577072
1.847826	2.639008	-3.864824	93.811304	0.175879	0.872275	0.563540	-4.151589	-4.441214	1.760558	0.843453	0.014721	21.984431	3.274845	0.000000	-1.922080	0.127872	10.609503	1.001626	0.017482	24.589048	-2.084430	0.000000	0.001409	-0.018720	-1.418977	0.002617	-0.024897	-1.507663	0.002315	-0.045515	-1.507663	0.001611	-0.045515	-1.241604	0.001309	-0.038173	-1.152918	0.000805	-0.028997	-1.064232	0.010066	-0.211762	-7.891922	0.000000	0.000000	20.272397	4.778050	12.216856	11.297126	-13.154588	116.692869	10.231093	8.392298	11.508256	-5.311292	11.060922	-5.959688	148.577689	3.507477	4.913946	-7.342928	-11.232496
1.869565	2.502274	-3.866067	93.862315	0.176022	0.872259	0.563453	-4.143654	-4.573110	1.368471	0.917449	0.016013	22.271503	3.820536	0.000000	-1.869215	0.276495	11.464984	0.948752	0.016559	24.490625	-3.298649	0.000000	-0.002062	-0.037517	-1.435101	-0.003830	-0.049898	-1.524795	-0.003388	-0.091219	-1.524795	-0.002357	-0.091219	-1.255714	-0.001915	-0.076505	-1.166020	-0.001178	-0.058114	-1.076326	-0.014731	-0.424401	-7.981604	0.000000	0.000000	19.751845	4.870277	12.998874	11.278625	-13.069579	117.009200	10.196250	8.277777	11.561007	-5.683242	11.095209	-6.097308	150.440963	3.317720	5.446107	-7.526675	-10.672346
1.891304	2.391117	-3.876379	93.967274	0.176050	0.872186	0.563480	-4.103700	-4.682844	0.786910	1.052660	0.018372	22.560205	4.469829	0.000000	-1.793347	0.402261	12.564233	0.902611	0.015754	24.351672	-4.785504	0.000000	-0.003883	-0.053060	-1.466684	-0.007210	-0.070570	-1.558352	-0.006379	-0.129010	-1.558352	-0.004437	-0.129010	-1.283349	-0.003605	-0.108200	-1.191681	-0.002219	-0.082190	-1.100013	-0.027733	-0.600226	-8.157257	0.000000	0.000000	19.207118	5.024655	13.856563	11.291215	-13.006372	117.284226	10.199264	8.072510	11.624118	-5.981842	11.174750	-6.243219	152.768483	3.077682	5.854543	-7.577245	-9.970728
1.913043	2.305682	-3.889195	94.088045	0.176018	0.872079	0.563587	-4.042740	-4.767353	0.077348	1.228605	0.021443	22.797106	5.153112	0.000000	-1.709906	0.499065	13.600710	0.863874	0.015077	24.216144	-6.129245	0.000000	-0.005732	-0.065053	-1.501593	-0.010645	-0.086521	-1.595443	-0.009417	-0.158171	-1.595443	-0.006551	-0.158171	-1.313894	-0.005323	-0.132657	-1.220045	-0.003275	-0.100768	-1.126195	-0.040943	-0.735897	-8.351412	0.000000	0.000000	18.683971	5.224994	14.724048	11.330324	-12.965548	117.604359	10.213930	7.780608	11.702443	-6.247467	11.296199	-6.376904	155.653989	2.752943	6.212757	-7.507106	-9.116530
1.934783	2.255219	-3.906780	94.205479	0.175939	0.871939	0.563749	-3.956712	-4.822635	-0.775788	1.445644	0.025231	22.989757	5.959255	0.000000	-1.624487	0.555241	14.230998	0.823581	0.014374	24.141633	-6.848881	0.000000	-0.007835	-0.072513	-1.538571	-0.014550	-0.096442	-1.634731	-0.012872	-0.176307	-1.634731	-0.008955	-0.176307	-1.346249	-0.007276	-0.147868	-1.250089	-0.004477	-0.112322	-1.153928	-0.055965	-0.820276	-8.557069	0.000000	0.000000	18.237292	5.396311	15.467298	11.373823	-13.024186	117.003396	10.408412	8.199022	11.655977	-6.339366	11.431307	-6.495035	158.600479	2.362695	6.790070	-7.310122	-8.257576
